<svg id="uuid-cc6f62ea-950f-445f-9e3b-787abc69a08b" xmlns="http://www.w3.org/2000/svg" width="24" height="24" viewBox="0 0 24 24"><path class="uuid-c14a0e50-1e30-436b-8b44-13c52077ca7b" d="M7,17c-1.38,0-2.56-.49-3.54-1.46s-1.46-2.15-1.46-3.54.49-2.56,1.46-3.54,2.15-1.46,3.54-1.46h3c.28,0,.52.1.71.29s.29.43.29.71-.1.52-.29.71-.43.29-.71.29h-3c-.83,0-1.54.29-2.13.88s-.88,1.29-.88,2.13.29,1.54.88,2.13,1.29.88,2.13.88h3c.28,0,.52.1.71.29s.29.43.29.71-.1.52-.29.71-.43.29-.71.29h-3ZM9,13c-.28,0-.52-.1-.71-.29s-.29-.43-.29-.71.1-.52.29-.71c.19-.19.43-.29.71-.29h6c.28,0,.52.1.71.29.19.19.29.43.29.71s-.1.52-.29.71-.43.29-.71.29h-6ZM14,17c-.28,0-.52-.1-.71-.29s-.29-.43-.29-.71.1-.52.29-.71.43-.29.71-.29h3c.83,0,1.54-.29,2.13-.88s.88-1.29.88-2.13-.29-1.54-.88-2.13-1.29-.88-2.13-.88h-3c-.28,0-.52-.1-.71-.29s-.29-.43-.29-.71.1-.52.29-.71.43-.29.71-.29h3c1.38,0,2.56.49,3.54,1.46s1.46,2.15,1.46,3.54-.49,2.56-1.46,3.54-2.15,1.46-3.54,1.46h-3Z"/></svg>