<svg xmlns="http://www.w3.org/2000/svg" width="24" height="24" viewBox="0 0 24 24"></defs><path d="M19.86,22h-11.43c-.57,0-1.11-.23-1.51-.63-.4-.4-.63-.95-.63-1.51v-11.43c0-.57.23-1.11.63-1.51.4-.4.95-.63,1.51-.63h11.43c.57,0,1.11.23,1.51.63.4.4.63.95.63,1.51v11.43c0,.57-.23,1.11-.63,1.51-.4.4-.95.63-1.51.63h0ZM8.43,7.71c-.19,0-.37.08-.5.21s-.21.32-.21.5v11.43c0,.19.08.37.21.5s.32.21.5.21h11.43c.19,0,.37-.08.5-.21s.21-.32.21-.5v-11.43c0-.19-.08-.37-.21-.5s-.32-.21-.5-.21h-11.43ZM4.14,17.71c-.57,0-1.11-.23-1.51-.63-.4-.4-.63-.95-.63-1.51V4.14c0-.57.23-1.11.63-1.51.4-.4.95-.63,1.51-.63h11.43c.57,0,1.11.23,1.51.63.4.4.63.95.63,1.51,0,.26-.14.49-.36.62-.22.13-.49.13-.71,0s-.36-.36-.36-.62c0-.19-.08-.37-.21-.5s-.32-.21-.5-.21H4.14c-.19,0-.37.08-.5.21s-.21.32-.21.5v11.43c0,.19.08.37.21.5s.32.21.5.21c.26,0,.49.14.62.36.13.22.13.49,0,.71s-.36.36-.62.36ZM17.17,15.87c-.19,0-.37-.08-.51-.21-.13-.13-.21-.32-.21-.51,0-.19.08-.37.21-.51l.25-.25c.54-.54.75-1.33.55-2.07-.2-.74-.78-1.32-1.52-1.52-.74-.2-1.53.01-2.07.56l-.25.25c-.18.18-.44.24-.69.18-.24-.07-.43-.26-.5-.5-.07-.24,0-.5.18-.69l.25-.25h0c.67-.67,1.58-1.05,2.53-1.05.95,0,1.86.38,2.53,1.05.67.67,1.05,1.58,1.05,2.53,0,.95-.38,1.86-1.05,2.53l-.25.25c-.13.13-.32.21-.5.21h0ZM12.88,18.98c-.71,0-1.4-.21-1.98-.6s-1.05-.95-1.32-1.6c-.27-.65-.34-1.37-.2-2.06.14-.69.48-1.33.98-1.83l.25-.25c.18-.18.44-.24.69-.18.24.07.43.26.5.5.07.24,0,.5-.18.69l-.25.25c-.54.54-.75,1.33-.55,2.07.2.74.78,1.32,1.52,1.52.74.2,1.53-.01,2.07-.56l.25-.25c.18-.18.44-.24.69-.18.24.07.43.26.5.5.07.24,0,.5-.18.69l-.25.25h0c-.33.33-.73.6-1.16.77-.43.18-.9.27-1.37.27h0ZM13.39,15.61c-.19,0-.37-.08-.5-.21s-.21-.32-.21-.51.08-.37.21-.5l2.02-2.02c.18-.18.44-.24.69-.18.24.07.43.26.5.5.07.24,0,.51-.18.69l-2.02,2.02c-.13.13-.32.21-.5.21h0Z"/></svg>