<svg id="uuid-a5bff642-ed03-4cce-9ad1-cfe0b2cf166f" xmlns="http://www.w3.org/2000/svg" width="24" height="24" viewBox="0 0 24 24"><path class="uuid-58c19eaf-89b8-43a2-b87c-a1995b95f784" d="M10.6,13.8l-2.15-2.15c-.18-.18-.42-.28-.7-.28s-.52.09-.7.28-.28.42-.28.7.09.52.28.7l2.85,2.85c.2.2.43.3.7.3s.5-.1.7-.3l5.65-5.65c.18-.18.28-.42.28-.7s-.09-.52-.28-.7-.42-.28-.7-.28-.52.09-.7.28l-4.95,4.95ZM12,22c-1.38,0-2.68-.26-3.9-.79s-2.28-1.24-3.18-2.14-1.61-1.96-2.14-3.18-.79-2.52-.79-3.9.26-2.68.79-3.9,1.24-2.28,2.14-3.18,1.96-1.61,3.18-2.14,2.52-.79,3.9-.79,2.68.26,3.9.79,2.28,1.24,3.18,2.14,1.61,1.96,2.14,3.18.79,2.52.79,3.9-.26,2.68-.79,3.9-1.24,2.28-2.14,3.18-1.96,1.61-3.18,2.14-2.52.79-3.9.79ZM12,20c2.23,0,4.13-.78,5.68-2.33s2.33-3.44,2.33-5.68-.78-4.13-2.33-5.68-3.44-2.33-5.68-2.33-4.13.78-5.68,2.33-2.33,3.44-2.33,5.68.78,4.13,2.33,5.68,3.44,2.33,5.68,2.33Z"/></svg>