<?xml version="1.0" encoding="UTF-8"?><svg id="uuid-fc9d862e-26b8-489b-b391-43348db4bb9b" xmlns="http://www.w3.org/2000/svg" width="24" height="24" viewBox="0 0 24 24"><defs><style>.uuid-5cb8475b-17c5-477b-817f-fe796bdc22c9{fill:#e3e3e3;}</style></defs><path class="uuid-5cb8475b-17c5-477b-817f-fe796bdc22c9" d="M9.5,18c-.55,0-1.02-.2-1.41-.59-.39-.39-.59-.86-.59-1.41V4c0-.55.2-1.02.59-1.41s.86-.59,1.41-.59h9c.55,0,1.02.2,1.41.59s.59.86.59,1.41v12c0,.55-.2,1.02-.59,1.41-.39.39-.86.59-1.41.59h-9ZM9.5,16h9V4h-9v12ZM5.5,22c-.55,0-1.02-.2-1.41-.59-.39-.39-.59-.86-.59-1.41V7c0-.28.1-.52.29-.71.19-.19.43-.29.71-.29s.52.1.71.29.29.43.29.71v13h10c.28,0,.52.1.71.29s.29.43.29.71-.1.52-.29.71-.43.29-.71.29H5.5ZM9.5,16V4v12Z"/></svg>