<?xml version="1.0" encoding="UTF-8"?><svg id="uuid-5d9fb9e3-fc7b-4e5c-9b7b-6296b658cb4a" xmlns="http://www.w3.org/2000/svg" width="24" height="24" viewBox="0 0 24 24"><defs><style>.uuid-71519197-da98-4c17-96f7-f8499511641e{fill:#e3e3e3;}</style></defs><path class="uuid-71519197-da98-4c17-96f7-f8499511641e" d="M12.25,19.32h-.25c-2.37,0-4.38-.83-6.03-2.48s-2.48-3.66-2.48-6.03.83-4.38,2.48-6.03,3.66-2.48,6.03-2.48c1.18,0,2.29.22,3.31.66s1.93,1.05,2.7,1.83,1.38,1.68,1.83,2.7.66,2.13.66,3.31c0,2.23-.63,4.31-1.89,6.23-1.26,1.92-2.85,3.42-4.76,4.5-.17.08-.33.13-.5.14-.17,0-.32-.03-.45-.11s-.25-.19-.35-.33c-.1-.13-.16-.29-.18-.48l-.13-1.45ZM14.5,18.67c1.18-1,2.15-2.17,2.89-3.51s1.11-2.79,1.11-4.34c0-1.82-.63-3.35-1.89-4.61s-2.8-1.89-4.61-1.89-3.35.63-4.61,1.89c-1.26,1.26-1.89,2.8-1.89,4.61s.63,3.35,1.89,4.61c1.26,1.26,2.8,1.89,4.61,1.89h2.5v1.35ZM11.97,16.29c.28,0,.53-.1.73-.3s.3-.44.3-.73-.1-.53-.3-.73-.44-.3-.73-.3-.53.1-.73.3-.3.44-.3.73.1.53.3.73.44.3.73.3ZM9.8,8.69c.18.08.37.09.55.01s.33-.2.45-.36c.15-.2.33-.35.53-.46s.43-.16.68-.16c.4,0,.73.11.98.34s.38.51.38.86c0,.22-.06.43-.19.65s-.35.48-.66.8c-.42.37-.73.71-.93,1.04s-.3.65-.3.99c0,.2.07.37.21.51s.31.21.51.21.37-.08.5-.23.23-.33.3-.53c.08-.28.23-.54.45-.78.22-.23.42-.44.6-.63.35-.35.61-.7.79-1.05s.26-.7.26-1.05c0-.77-.26-1.38-.79-1.85s-1.23-.7-2.11-.7c-.53,0-1.03.13-1.48.39s-.82.61-1.1,1.06c-.1.18-.11.36-.04.54s.21.3.41.39Z"/></svg>